<svg width="45" height="44" viewBox="0 0 45 44" fill="none" xmlns="http://www.w3.org/2000/svg">
<g clip-path="url(#clip0_929_227)">
<path d="M11.236 24.5999V26.3333V28.0664V29.7999V31.5333V33.2664H13.0218H14.8077V31.5333V29.7999V28.0664H16.5932V29.7999V31.5333V33.2664H18.379H20.1648H21.9503H23.7362H25.522H27.3075V31.5333V29.7999V28.0664V26.3333H29.0933V28.0664V29.7999V31.5333V33.2664H30.8792H32.6647V31.5333V29.7999V28.0664V26.3333V24.5999H34.4505V26.3333V28.0664V29.7999V31.5333V33.2664V34.9999H32.6647H30.8792H29.0933H27.3075H25.522H23.7362H21.9503H20.1648H18.379H16.5932H14.8077H13.0218H11.236H9.4505V33.2664V31.5333V29.7999V28.0664V26.3333V24.5999H11.236Z" fill="white"/>
<path d="M11.2369 22.8665H13.0227V24.5999H11.2369V22.8665Z" fill="white"/>
<path d="M18.3807 14.2V15.9334V17.6665H16.5949V15.9334V14.2V12.4665V10.7334H18.3807V12.4665V14.2Z" fill="white"/>
<path d="M21.9502 17.6666H23.736H25.5219V19.4001H23.736H21.9502H20.1647H18.3788V17.6666H20.1647H21.9502Z" fill="white"/>
<path d="M23.7344 24.5999V26.3333H21.9486H20.1631V24.5999H21.9486H23.7344Z" fill="white"/>
<path d="M21.9502 10.7334H20.1647H18.3788V9H20.1647H21.9502H23.736H25.5219V10.7334H23.736H21.9502Z" fill="white"/>
<path d="M25.5238 15.9334V14.2V12.4665V10.7334H27.3093V12.4665V14.2V15.9334V17.6665H25.5238V15.9334Z" fill="white"/>
<path d="M27.3082 22.8667H25.5227V24.6001H23.7369V22.8667H21.951H20.1655V24.6001H18.3797V22.8667H16.5939H14.8084H13.0225V21.1335H14.8084H16.5939H18.3797H20.1655H21.951H23.7369H25.5227H27.3082H29.094H30.8799V22.8667H29.094H27.3082Z" fill="white"/>
<path d="M30.8775 22.8665H32.663V24.5999H30.8775V22.8665Z" fill="white"/>
</g>
<defs>
<clipPath id="clip0_929_227">
<rect width="25" height="26" fill="white" transform="matrix(-1 0 0 1 34.4481 9)"/>
</clipPath>
</defs>
</svg>
