<svg width="32" height="32" viewBox="0 0 32 32" fill="none" xmlns="http://www.w3.org/2000/svg">
<path d="M19.5547 12.8889H18.2214V14.2222H19.5547V12.8889Z" fill="white"/>
<path d="M19.5547 18.2222H18.2214V19.5555H19.5547V18.2222Z" fill="white"/>
<path d="M18.2214 14.2222H16.888V15.5555H18.2214V14.2222Z" fill="white"/>
<path d="M18.2214 16.8889H16.888V18.2222H18.2214V16.8889Z" fill="white"/>
<path d="M14.2214 12.8889H12.888V14.2222H14.2214V12.8889Z" fill="white"/>
<path d="M14.2214 18.2222H12.888V19.5555H14.2214V18.2222Z" fill="white"/>
<path d="M12.888 11.5555H11.5547V12.8889H12.888V11.5555Z" fill="white"/>
<path d="M20.888 11.5555H19.5547V12.8889H20.888V11.5555Z" fill="white"/>
<path d="M15.5547 16.8889H14.2214V18.2222H15.5547V16.8889Z" fill="white"/>
<path d="M15.5547 14.2222H14.2214V15.5555H15.5547V14.2222Z" fill="white"/>
<path d="M16.888 15.5555H15.5547V16.8889H16.888V15.5555Z" fill="white"/>
<path d="M12.888 19.5555H11.5547V20.8889H12.888V19.5555Z" fill="white"/>
<path d="M20.888 19.5555H19.5547V20.8889H20.888V19.5555Z" fill="white"/>
<path d="M23.5547 8.88888V7.55554H8.88802V8.88888L23.5547 8.88888Z" fill="white"/>
<path d="M7.55469 23.5555H8.88802V8.88888H7.55469V23.5555Z" fill="white"/>
<path d="M23.5547 24.8889V23.5555H8.88802V24.8889H23.5547Z" fill="white"/>
<path d="M24.888 8.88888L23.5547 8.88888V23.5555H24.888V8.88888Z" fill="white"/>
</svg>
