<svg width="45" height="44" viewBox="0 0 45 44" fill="none" xmlns="http://www.w3.org/2000/svg">
<path d="M15.1148 12.8333H13.2815V11L15.1148 11V12.8333Z" fill="white"/>
<path d="M13.2815 14.6666H11.4481V12.8333L13.2815 12.8333V14.6666Z" fill="white"/>
<path d="M15.1148 27.5H13.2815V25.6666H15.1148V27.5Z" fill="white"/>
<path d="M26.1148 12.8333H24.2815V11L26.1148 11V12.8333Z" fill="white"/>
<path d="M27.9481 14.6666H26.1148V12.8333H27.9481V14.6666Z" fill="white"/>
<path d="M29.7815 29.3333H27.9481V27.5H29.7815V29.3333Z" fill="white"/>
<path d="M31.6148 31.1666H29.7815V29.3333H31.6148V31.1666Z" fill="white"/>
<path d="M33.4481 33H31.6148V31.1666H33.4481V33Z" fill="white"/>
<path d="M35.2815 34.8333H33.4481V33H35.2815V34.8333Z" fill="white"/>
<path d="M13.2815 25.6666H11.4481V23.8333H13.2815V25.6666Z" fill="white"/>
<path d="M26.1148 23.8333V25.6666H24.2815V27.5H27.9481V23.8333H26.1148Z" fill="white"/>
<path d="M29.7815 14.6666H27.9481V23.8333H29.7815V14.6666Z" fill="white"/>
<path d="M15.1148 9.16663V11L24.2815 11V9.16663L15.1148 9.16663Z" fill="white"/>
<path d="M9.61481 23.8333H11.4481V14.6666H9.61481L9.61481 23.8333Z" fill="white"/>
<path d="M15.1148 27.5V29.3333H24.2815V27.5H15.1148Z" fill="white"/>
</svg>
