<svg width="32" height="32" viewBox="0 0 32 32" fill="none" xmlns="http://www.w3.org/2000/svg">
<path d="M14.6667 5.33337H16V6.66671H14.6667V5.33337Z" fill="#0F172A"/>
<path d="M16 5.33337H14.6667V6.66671H16V5.33337Z" fill="#0F172A"/>
<path d="M5.33333 13.3334H4V14.6667H5.33333V13.3334Z" fill="#0F172A"/>
<path d="M25.3333 13.3334H26.6667V14.6667H25.3333V13.3334Z" fill="#0F172A"/>
<path d="M9.33333 16H8V17.3334H9.33333V16Z" fill="#0F172A"/>
<path d="M21.3333 16H22.6667V17.3334H21.3333V16Z" fill="#0F172A"/>
<path d="M13.3333 22.6667H12V24H13.3333V22.6667Z" fill="#0F172A"/>
<path d="M17.3333 22.6667H18.6667V24H17.3333V22.6667Z" fill="#0F172A"/>
<path d="M14.6667 6.66671H13.3333V9.33337H14.6667V6.66671Z" fill="#0F172A"/>
<path d="M17.3333 6.66671H16V9.33337H17.3333V6.66671Z" fill="#0F172A"/>
<path d="M18.6667 9.33337H17.3333V12H18.6667V9.33337Z" fill="#0F172A"/>
<path d="M13.3333 9.33337H12V12H13.3333V9.33337Z" fill="#0F172A"/>
<path d="M12 13.3334V12H5.33333V13.3334H12Z" fill="#0F172A"/>
<path d="M18.6667 12V13.3334H25.3333V12H18.6667Z" fill="#0F172A"/>
<path d="M22.6667 14.6667V16H25.3333V14.6667H22.6667Z" fill="#0F172A"/>
<path d="M21.3333 17.3334H20V20H21.3333V17.3334Z" fill="#0F172A"/>
<path d="M10.6667 17.3334H9.33333V20H10.6667V17.3334Z" fill="#0F172A"/>
<path d="M21.3333 22.6667H22.6667V20H21.3333V22.6667Z" fill="#0F172A"/>
<path d="M22.6667 25.3334H21.3333V26.6667H24V22.6667H22.6667V25.3334Z" fill="#0F172A"/>
<path d="M21.3333 25.3334V24H18.6667V25.3334H21.3333Z" fill="#0F172A"/>
<path d="M17.3333 22.6667V21.3334H13.3333V22.6667H17.3333Z" fill="#0F172A"/>
<path d="M9.33333 24V25.3334H12V24H9.33333Z" fill="#0F172A"/>
<path d="M9.33333 25.3334H8V22.6667H6.66667V26.6667H9.33333V25.3334Z" fill="#0F172A"/>
<path d="M8 22.6667H9.33333V20H8V22.6667Z" fill="#0F172A"/>
<path d="M8 16V14.6667H5.33333V16H8Z" fill="#0F172A"/>
<path d="M14.6673 9.33329V6.66663H16.0006V9.33329H17.334V12H18.6673V13.3333H25.334V14.6666H22.6673V16H21.334V17.3333H20.0006V20H21.334V22.6666H22.6673V25.3333H21.334V24H18.6673V22.6666H17.334V21.3333H13.334V22.6666H12.0007V24H9.33398V25.3333H8.00065V22.6666H9.33398V20H10.6673V17.3333H9.33398V16H8.00065V14.6666H5.33398V13.3333H12.0007V12H13.334V9.33329H14.6673Z" fill="#FDE047"/>
</svg>
