<svg width="192" height="50" viewBox="0 0 192 50" fill="none" xmlns="http://www.w3.org/2000/svg">
<path d="M99.2811 2.02188L80.2767 27.2781L90.5175 28.1108L82.7402 50.0001L100.892 23.0594L90.3619 22.3179L99.2811 2.02188Z" fill="#D7ABAB"/>
<path d="M7.63829 37.0009C5.8357 37.0009 4.24109 36.6404 2.85449 35.9194C1.49561 35.1706 0.635909 34.2138 0.275391 33.0491L4.01924 30.7612C4.37976 31.4545 4.90667 32.0091 5.59997 32.4251C6.29328 32.8411 7.05591 33.0491 7.88788 33.0491C8.99717 33.0491 9.8846 32.8272 10.5502 32.3835C11.2435 31.9121 11.5901 31.2881 11.5901 30.5116C11.5901 29.9847 11.3544 29.5132 10.883 29.0972C10.4115 28.6535 9.63501 28.2098 8.55345 27.7661C6.55673 26.9341 5.08693 26.0328 4.14403 25.0622C3.22887 24.0916 2.77129 22.9962 2.77129 21.7759C2.77129 19.807 3.52006 18.2539 5.0176 17.1169C6.51513 15.9522 8.55345 15.3698 11.1325 15.3698C12.7687 15.3698 14.2108 15.6749 15.4588 16.285C16.7344 16.8951 17.6357 17.7409 18.1627 18.8225L14.71 21.1104C13.9335 19.9179 12.7133 19.3216 11.0493 19.3216C10.1342 19.3216 9.41315 19.5019 8.88624 19.8624C8.35933 20.2229 8.09587 20.7082 8.09587 21.3184C8.09587 21.7621 8.33159 22.1503 8.80304 22.4831C9.27449 22.8159 10.2451 23.2873 11.7149 23.8974C13.5452 24.674 14.8764 25.5198 15.7084 26.4349C16.5681 27.3224 16.9979 28.3346 16.9979 29.4716C16.9979 30.9414 16.5958 32.2587 15.7916 33.4235C15.0151 34.5605 13.9196 35.4479 12.5053 36.0858C11.0909 36.6959 9.46861 37.0009 7.63829 37.0009Z" fill="#D7ABAB"/>
<path d="M26.2496 37.0009C24.2806 37.0009 22.7831 36.4601 21.757 35.3786C20.7309 34.2693 20.2179 32.647 20.2179 30.5116C20.2179 29.541 20.3149 28.5565 20.5091 27.5581L22.5474 15.7858H27.872L25.8336 27.5581C25.695 28.3901 25.6256 29.0556 25.6256 29.5548C25.6256 30.6364 25.8614 31.4406 26.3328 31.9675C26.8043 32.4667 27.5253 32.7163 28.4959 32.7163C29.938 32.7163 31.2276 32.1616 32.3646 31.0524C33.5293 29.9431 34.2642 28.5426 34.5693 26.8509L36.4828 15.7858H41.8074L39.1035 31.3019C38.8816 32.4112 38.6736 34.1722 38.4795 36.5849H33.4461C33.4739 35.2538 33.5709 34.0336 33.7373 32.9243H33.6541C32.9053 34.2 31.8654 35.1983 30.5342 35.9194C29.2308 36.6404 27.8026 37.0009 26.2496 37.0009Z" fill="#D7ABAB"/>
<path d="M45.1164 21.3184C45.4215 19.4603 45.6849 17.6161 45.9068 15.7858H50.8986C50.8431 16.59 50.7322 17.5052 50.5658 18.5313H50.649C52.0079 16.4236 54.1987 15.3698 57.2215 15.3698C59.4401 15.3698 61.2011 16.1047 62.5045 17.5745C63.8356 19.0166 64.5012 20.9578 64.5012 23.3983C64.5012 26.0051 64.0575 28.3485 63.1701 30.4284C62.3104 32.4806 61.0901 34.089 59.5094 35.2538C57.9287 36.4185 56.1261 37.0009 54.1016 37.0009C52.7705 37.0009 51.578 36.7791 50.5242 36.3353C49.4981 35.8916 48.7355 35.2676 48.2363 34.4634H48.1115L45.9484 46.6517H40.6238L45.1164 21.3184ZM53.3113 33.0491C54.4206 33.0491 55.4189 32.6608 56.3063 31.8843C57.1938 31.0801 57.8871 29.9708 58.3863 28.5565C58.8854 27.1421 59.135 25.5614 59.135 23.8143C59.135 22.3999 58.83 21.3184 58.2199 20.5696C57.6098 19.8208 56.7362 19.4464 55.5992 19.4464C54.1571 19.4464 52.9091 19.8763 51.8553 20.736C50.8292 21.5679 50.1914 22.6772 49.9418 24.0638L49.193 28.3485C49.1376 28.7367 49.1098 29.014 49.1098 29.1804C49.1098 30.2897 49.4981 31.2187 50.2746 31.9675C51.0788 32.6886 52.091 33.0491 53.3113 33.0491Z" fill="#D7ABAB"/>
<path d="M68.7621 20.8608C69.1781 18.4481 69.4277 16.7564 69.5109 15.7858H74.5443C74.5165 17.0337 74.364 18.2539 74.0867 19.4464L74.0035 19.8624H74.1699C74.9464 18.4758 76.0557 17.3804 77.4977 16.5761C78.9676 15.7719 80.576 15.3698 82.3232 15.3698C82.6559 15.3698 83.0581 15.4114 83.5295 15.4946L82.8223 19.696C82.7114 19.6406 82.3786 19.6128 81.824 19.6128C80.4928 19.6128 79.1894 19.9733 77.9137 20.6944C76.638 21.4154 75.5426 22.386 74.6275 23.6063C73.74 24.7987 73.1715 26.0883 72.9219 27.4749L71.2996 36.5849H65.975L68.7621 20.8608Z" fill="#D7ABAB"/>
<path d="M106.07 5.71899H111.395L109.19 18.2401C109.911 17.3527 110.868 16.6593 112.06 16.1602C113.253 15.6333 114.529 15.3698 115.887 15.3698C117.967 15.3698 119.604 15.9799 120.796 17.2001C122.016 18.3926 122.626 20.0149 122.626 22.0671C122.626 22.6495 122.557 23.3289 122.418 24.1054L120.214 36.5849H114.889L117.011 24.4798C117.122 23.7588 117.177 23.2457 117.177 22.9407C117.177 21.8037 116.9 20.9162 116.345 20.2784C115.79 19.6406 115 19.3216 113.974 19.3216C112.449 19.3216 111.145 19.8624 110.064 20.944C108.982 21.9978 108.275 23.4399 107.942 25.2702L105.945 36.5849H100.621L106.07 5.71899Z" fill="#D7ABAB"/>
<path d="M134.456 37.0009C131.6 37.0009 129.326 36.2383 127.634 34.713C125.97 33.1877 125.138 31.1217 125.138 28.5149C125.138 25.9358 125.665 23.6479 126.719 21.6511C127.773 19.6544 129.243 18.1153 131.128 17.0337C133.042 15.9244 135.247 15.3698 137.742 15.3698C140.599 15.3698 142.859 16.1324 144.523 17.6577C146.215 19.183 147.06 21.249 147.06 23.8559C147.06 26.4349 146.534 28.7229 145.48 30.7196C144.426 32.7163 142.942 34.2693 141.029 35.3786C139.115 36.4601 136.924 37.0009 134.456 37.0009ZM134.955 33.0491C136.231 33.0491 137.382 32.6747 138.408 31.9259C139.434 31.1771 140.238 30.1372 140.821 28.806C141.403 27.4749 141.694 25.9774 141.694 24.3134C141.694 22.7604 141.292 21.5402 140.488 20.6528C139.711 19.7654 138.616 19.3216 137.202 19.3216C135.926 19.3216 134.775 19.696 133.749 20.4448C132.723 21.1936 131.919 22.2335 131.336 23.5647C130.754 24.8958 130.463 26.3933 130.463 28.0573C130.463 29.6103 130.865 30.8305 131.669 31.7179C132.473 32.6054 133.569 33.0491 134.955 33.0491Z" fill="#D7ABAB"/>
<path d="M151.225 21.3184C151.53 19.4603 151.793 17.6161 152.015 15.7858H157.007C156.951 16.59 156.84 17.5052 156.674 18.5313H156.757C158.116 16.4236 160.307 15.3698 163.33 15.3698C165.548 15.3698 167.309 16.1047 168.613 17.5745C169.944 19.0166 170.609 20.9578 170.609 23.3983C170.609 26.0051 170.166 28.3485 169.278 30.4284C168.419 32.4806 167.198 34.089 165.618 35.2538C164.037 36.4185 162.234 37.0009 160.21 37.0009C158.879 37.0009 157.686 36.7791 156.632 36.3353C155.606 35.8916 154.844 35.2676 154.344 34.4634H154.22L152.057 46.6517H146.732L151.225 21.3184ZM159.419 33.0491C160.529 33.0491 161.527 32.6608 162.414 31.8843C163.302 31.0801 163.995 29.9708 164.494 28.5565C164.994 27.1421 165.243 25.5614 165.243 23.8143C165.243 22.3999 164.938 21.3184 164.328 20.5696C163.718 19.8208 162.844 19.4464 161.707 19.4464C160.265 19.4464 159.017 19.8763 157.963 20.736C156.937 21.5679 156.3 22.6772 156.05 24.0638L155.301 28.3485C155.246 28.7367 155.218 29.014 155.218 29.1804C155.218 30.2897 155.606 31.2187 156.383 31.9675C157.187 32.6886 158.199 33.0491 159.419 33.0491Z" fill="#D7ABAB"/>
<path d="M178.947 37.0009C177.144 37.0009 175.55 36.6404 174.163 35.9194C172.804 35.1706 171.945 34.2138 171.584 33.0491L175.328 30.7612C175.688 31.4545 176.215 32.0091 176.909 32.4251C177.602 32.8411 178.364 33.0491 179.196 33.0491C180.306 33.0491 181.193 32.8272 181.859 32.3835C182.552 31.9121 182.899 31.2881 182.899 30.5116C182.899 29.9847 182.663 29.5132 182.192 29.0972C181.72 28.6535 180.944 28.2098 179.862 27.7661C177.865 26.9341 176.396 26.0328 175.453 25.0622C174.537 24.0916 174.08 22.9962 174.08 21.7759C174.08 19.807 174.829 18.2539 176.326 17.1169C177.824 15.9522 179.862 15.3698 182.441 15.3698C184.077 15.3698 185.519 15.6749 186.767 16.285C188.043 16.8951 188.944 17.7409 189.471 18.8225L186.019 21.1104C185.242 19.9179 184.022 19.3216 182.358 19.3216C181.443 19.3216 180.722 19.5019 180.195 19.8624C179.668 20.2229 179.404 20.7082 179.404 21.3184C179.404 21.7621 179.64 22.1503 180.112 22.4831C180.583 22.8159 181.554 23.2873 183.024 23.8974C184.854 24.674 186.185 25.5198 187.017 26.4349C187.877 27.3224 188.307 28.3346 188.307 29.4716C188.307 30.9414 187.904 32.2587 187.1 33.4235C186.324 34.5605 185.228 35.4479 183.814 36.0858C182.4 36.6959 180.777 37.0009 178.947 37.0009Z" fill="#D7ABAB"/>
<path d="M105.945 36.5849L108.199 35.2101L105.426 34.3798L105.945 36.5849Z" fill="#D7ABAB"/>
<path d="M45.9485 46.6516L48.2008 45.2784L45.4258 44.4705L45.9485 46.6516Z" fill="#D7ABAB"/>
<path d="M38.4797 36.5844L40.7337 35.2094L37.9629 34.4055L38.4797 36.5844Z" fill="#D7ABAB"/>
<path d="M71.2931 36.5816L73.5562 35.2049L70.7793 34.3845L71.2931 36.5816Z" fill="#D7ABAB"/>
<path d="M71.6316 15.8569L71.764 14.4124L69.5117 15.7858L71.6316 15.8569Z" fill="#D7ABAB"/>
<path d="M82.8223 19.696L85.0765 18.321L84.8782 18.2065L83.0428 17.8615L82.8223 19.696Z" fill="#D7ABAB"/>
<path d="M48.0304 15.8372L48.1592 14.4124L45.9062 15.7858L48.0304 15.8372Z" fill="#D7ABAB"/>
<path d="M38.6022 15.844L38.7432 14.4083L36.4805 15.7919L38.6022 15.844Z" fill="#D7ABAB"/>
<path d="M24.6695 15.8372L24.8015 14.4115L22.5469 15.7857L24.6695 15.8372Z" fill="#D7ABAB"/>
<path d="M108.11 5.75304L108.332 4.34534L106.068 5.72028L108.11 5.75304Z" fill="#D7ABAB"/>
<path d="M154.141 15.9511L154.292 14.4036L152.021 15.7785L154.141 15.9511Z" fill="#D7ABAB"/>
<path d="M120.214 36.5843L122.465 35.2117L119.691 34.3827L120.214 36.5843Z" fill="#D7ABAB"/>
<path d="M152.059 46.6516L154.315 45.2692L151.539 44.447L152.059 46.6516Z" fill="#D7ABAB"/>
<path d="M9.89024 35.6276C8.08765 35.6276 6.49305 35.2671 5.10644 34.5461C3.74756 33.7973 2.88786 32.8405 2.52734 31.6758L6.27119 29.3879C6.63171 30.0812 7.15862 30.6358 7.85193 31.0518C8.54523 31.4678 9.30787 31.6758 10.1398 31.6758C11.2491 31.6758 12.1365 31.4539 12.8021 31.0102C13.4954 30.5388 13.8421 29.9148 13.8421 29.1383C13.8421 28.6114 13.6064 28.1399 13.1349 27.7239C12.6635 27.2802 11.887 26.8365 10.8054 26.3928C8.80869 25.5608 7.33888 24.6595 6.39599 23.6889C5.48082 22.7183 5.02324 21.6229 5.02324 20.4026C5.02324 18.4337 5.77201 16.8807 7.26955 15.7436C8.76709 14.5789 10.8054 13.9965 13.3845 13.9965C15.0207 13.9965 16.4628 14.3016 17.7107 14.9117C18.9864 15.5218 19.8877 16.3676 20.4146 17.4492L16.8405 19.7017C16.064 18.5092 14.9652 17.9483 13.3013 17.9483C12.3861 17.9483 11.6651 18.1286 11.1382 18.4891C10.6113 18.8496 10.3478 19.335 10.3478 19.9451C10.3478 20.3888 10.5835 20.777 11.055 21.1098C11.5264 21.4426 12.4971 21.9141 13.9669 22.5242C15.7972 23.3007 17.1283 24.1465 17.9603 25.0617C18.82 25.9491 19.2499 26.9613 19.2499 28.0983C19.2499 29.5681 18.8477 30.8854 18.0435 32.0502C17.267 33.1872 16.1716 34.0746 14.7572 34.7125C13.3429 35.3226 11.7206 35.6276 9.89024 35.6276Z" fill="white"/>
<path d="M28.5016 35.6276C26.5326 35.6276 25.0351 35.0868 24.009 34.0053C22.9829 32.896 22.4698 31.2737 22.4698 29.1383C22.4698 28.1677 22.5669 27.1832 22.761 26.1848L24.7993 14.4125H30.1239L28.0856 26.1848C27.9469 27.0168 27.8776 27.6823 27.8776 28.1815C27.8776 29.2631 28.1133 30.0673 28.5848 30.5942C29.0562 31.0934 29.7773 31.343 30.7479 31.343C32.19 31.343 33.4795 30.7884 34.6165 29.6791C35.7813 28.5698 36.5162 27.1693 36.8212 25.4776L38.7348 14.4125H44.0593L41.3554 29.9287C41.1336 31.0379 40.9256 32.7989 40.7315 35.2116H35.6981C35.7258 33.8805 35.8229 32.6603 35.9893 31.551H35.9061C35.1573 32.8267 34.1173 33.825 32.7862 34.5461C31.4828 35.2671 30.0546 35.6276 28.5016 35.6276Z" fill="white"/>
<path d="M47.3684 19.9451C47.6734 18.087 47.9369 16.2428 48.1587 14.4125H53.1505C53.0951 15.2167 52.9841 16.1319 52.8177 17.158H52.9009C54.2598 15.0503 56.4506 13.9965 59.4735 13.9965C61.692 13.9965 63.453 14.7314 64.7564 16.2012C66.0876 17.6433 66.7532 19.5845 66.7532 22.025C66.7532 24.6318 66.3094 26.9752 65.422 29.0551C64.5623 31.1073 63.3421 32.7157 61.7614 33.8805C60.1806 35.0452 58.378 35.6276 56.3536 35.6276C55.0224 35.6276 53.83 35.4058 52.7761 34.962C51.75 34.5183 50.9874 33.8944 50.4882 33.0901H50.3634L48.2003 45.2784H42.8757L47.3684 19.9451ZM55.5632 31.6758C56.6725 31.6758 57.6709 31.2875 58.5583 30.511C59.4457 29.7068 60.139 28.5975 60.6382 27.1832C61.1374 25.7688 61.387 24.1881 61.387 22.441C61.387 21.0266 61.0819 19.9451 60.4718 19.1963C59.8617 18.4475 58.9881 18.0731 57.8511 18.0731C56.409 18.0731 55.1611 18.503 54.1073 19.3627C53.0812 20.1947 52.4433 21.3039 52.1938 22.6905L51.445 26.9752C51.3895 27.3634 51.3618 27.6407 51.3618 27.8071C51.3618 28.9164 51.75 29.8455 52.5265 30.5942C53.3308 31.3153 54.343 31.6758 55.5632 31.6758Z" fill="white"/>
<path d="M71.0141 19.4875C71.43 17.0748 71.6796 15.3831 71.7628 14.4125H76.7962C76.7685 15.6604 76.616 16.8807 76.3386 18.0731L76.2554 18.4891H76.4218C77.1983 17.1025 78.3076 16.0071 79.7497 15.2029C81.2195 14.3986 82.828 13.9965 84.5751 13.9965C84.9079 13.9965 85.31 14.0381 85.7814 14.1213L85.0743 18.3227C84.9633 18.2673 84.6306 18.2395 84.0759 18.2395C82.7448 18.2395 81.4414 18.6001 80.1657 19.3211C78.89 20.0421 77.7946 21.0128 76.8794 22.233C75.992 23.4255 75.4235 24.715 75.1739 26.1016L73.5516 35.2116H68.227L71.0141 19.4875Z" fill="white"/>
<path d="M108.322 4.3457H113.647L111.442 16.8668C112.163 15.9794 113.12 15.2861 114.312 14.7869C115.505 14.26 116.781 13.9965 118.139 13.9965C120.219 13.9965 121.856 14.6066 123.048 15.8268C124.268 17.0193 124.878 18.6417 124.878 20.6938C124.878 21.2762 124.809 21.9556 124.67 22.7321L122.466 35.2116H117.141L119.263 23.1065C119.373 22.3855 119.429 21.8725 119.429 21.5674C119.429 20.4304 119.152 19.5429 118.597 18.9051C118.042 18.2673 117.252 17.9483 116.226 17.9483C114.701 17.9483 113.397 18.4891 112.316 19.5707C111.234 20.6245 110.527 22.0666 110.194 23.8969L108.197 35.2116H102.873L108.322 4.3457Z" fill="white"/>
<path d="M136.708 35.6276C133.852 35.6276 131.578 34.865 129.886 33.3397C128.222 31.8144 127.39 29.7484 127.39 27.1416C127.39 24.5625 127.917 22.2746 128.971 20.2778C130.025 18.2811 131.494 16.742 133.38 15.6604C135.294 14.5512 137.499 13.9965 139.994 13.9965C142.851 13.9965 145.111 14.7591 146.775 16.2844C148.467 17.8097 149.312 19.8757 149.312 22.4826C149.312 25.0617 148.786 27.3496 147.732 29.3463C146.678 31.343 145.194 32.896 143.281 34.0053C141.367 35.0868 139.176 35.6276 136.708 35.6276ZM137.207 31.6758C138.483 31.6758 139.634 31.3014 140.66 30.5526C141.686 29.8039 142.49 28.7639 143.073 27.4328C143.655 26.1016 143.946 24.6041 143.946 22.9401C143.946 21.3871 143.544 20.1669 142.74 19.2795C141.963 18.3921 140.868 17.9483 139.454 17.9483C138.178 17.9483 137.027 18.3227 136.001 19.0715C134.975 19.8203 134.171 20.8602 133.588 22.1914C133.006 23.5225 132.715 25.0201 132.715 26.684C132.715 28.237 133.117 29.4572 133.921 30.3446C134.725 31.2321 135.821 31.6758 137.207 31.6758Z" fill="white"/>
<path d="M153.477 19.9451C153.782 18.087 154.045 16.2428 154.267 14.4125H159.259C159.203 15.2167 159.092 16.1319 158.926 17.158H159.009C160.368 15.0503 162.559 13.9965 165.582 13.9965C167.8 13.9965 169.561 14.7314 170.865 16.2012C172.196 17.6433 172.861 19.5845 172.861 22.025C172.861 24.6318 172.418 26.9752 171.53 29.0551C170.67 31.1073 169.45 32.7157 167.87 33.8805C166.289 35.0452 164.486 35.6276 162.462 35.6276C161.131 35.6276 159.938 35.4058 158.884 34.962C157.858 34.5183 157.096 33.8944 156.596 33.0901H156.472L154.308 45.2784H148.984L153.477 19.9451ZM161.671 31.6758C162.781 31.6758 163.779 31.2875 164.666 30.511C165.554 29.7068 166.247 28.5975 166.746 27.1832C167.246 25.7688 167.495 24.1881 167.495 22.441C167.495 21.0266 167.19 19.9451 166.58 19.1963C165.97 18.4475 165.096 18.0731 163.959 18.0731C162.517 18.0731 161.269 18.503 160.215 19.3627C159.189 20.1947 158.551 21.3039 158.302 22.6905L157.553 26.9752C157.498 27.3634 157.47 27.6407 157.47 27.8071C157.47 28.9164 157.858 29.8455 158.635 30.5942C159.439 31.3153 160.451 31.6758 161.671 31.6758Z" fill="white"/>
<path d="M181.199 35.6276C179.396 35.6276 177.802 35.2671 176.415 34.5461C175.056 33.7973 174.196 32.8405 173.836 31.6758L177.58 29.3879C177.94 30.0812 178.467 30.6358 179.161 31.0518C179.854 31.4678 180.616 31.6758 181.448 31.6758C182.558 31.6758 183.445 31.4539 184.111 31.0102C184.804 30.5388 185.151 29.9148 185.151 29.1383C185.151 28.6114 184.915 28.1399 184.443 27.7239C183.972 27.2802 183.196 26.8365 182.114 26.3928C180.117 25.5608 178.647 24.6595 177.705 23.6889C176.789 22.7183 176.332 21.6229 176.332 20.4026C176.332 18.4337 177.081 16.8807 178.578 15.7436C180.076 14.5789 182.114 13.9965 184.693 13.9965C186.329 13.9965 187.771 14.3016 189.019 14.9117C190.295 15.5218 191.196 16.3676 191.723 17.4492L188.171 19.6866C187.394 18.4941 186.274 17.9483 184.61 17.9483C183.695 17.9483 182.974 18.1286 182.447 18.4891C181.92 18.8496 181.656 19.335 181.656 19.9451C181.656 20.3888 181.892 20.777 182.364 21.1098C182.835 21.4426 183.806 21.9141 185.275 22.5242C187.106 23.3007 188.437 24.1465 189.269 25.0617C190.129 25.9491 190.558 26.9613 190.558 28.0983C190.558 29.5681 190.156 30.8854 189.352 32.0502C188.576 33.1872 187.48 34.0746 186.066 34.7125C184.651 35.3226 183.029 35.6276 181.199 35.6276Z" fill="white"/>
<path d="M93.5038 21.0766L102.405 21.7034L88.1321 41.0262L94.5449 26.3333L95.0476 25.1817L93.7952 25.0799L85.0923 24.3722L96.6182 7.46654L92.7107 19.9126L92.3703 20.9968L93.5038 21.0766Z" fill="#FAB520" stroke="#DE4A24" stroke-width="1.79483"/>
<path fill-rule="evenodd" clip-rule="evenodd" d="M97.2484 5.04032C97.5122 4.95481 97.7395 4.76165 97.8356 4.50319C97.8839 4.3739 97.8993 4.2377 97.8863 4.10467L97.2484 5.04032ZM95.4146 7.72998L96.419 6.25687C96.6744 6.50594 96.7865 6.91516 96.6595 7.24877C96.4874 7.69873 95.9026 7.9442 95.4571 7.74997C95.4427 7.74369 95.4285 7.73702 95.4146 7.72998ZM93.9255 9.91416L94.736 8.72534C94.8295 8.72646 94.9231 8.74274 95.0128 8.77583C95.4644 8.94387 95.6942 9.47429 95.5057 9.91748C95.324 10.3443 94.8588 10.5437 94.417 10.375C94.1884 10.2873 94.0173 10.117 93.9255 9.91416ZM88.9274 17.2451L89.4258 16.5141C89.4368 16.6216 89.4236 16.7315 89.3821 16.8347C89.3028 17.033 89.1283 17.1802 88.9274 17.2451ZM87.2117 19.7617L87.9612 18.6623C88.238 18.8355 88.3605 19.1756 88.2425 19.4807C88.1079 19.8171 87.7096 19.982 87.361 19.8423C87.3066 19.8205 87.2567 19.7933 87.2117 19.7617ZM85.9087 21.6729L86.0869 21.4116C86.2707 21.2525 86.5421 21.2056 86.77 21.3143C87.0776 21.4609 87.2139 21.8474 87.0673 22.1549C86.9174 22.4706 86.5407 22.6062 86.2291 22.4579C85.9397 22.32 85.8004 21.973 85.9087 21.6729ZM88.5984 25.5612L87.4863 25.4707C87.6269 25.1881 87.9544 25.0568 88.25 25.175C88.4152 25.2406 88.5405 25.3905 88.5984 25.5612ZM92.8116 28.1992L93.1659 27.3874C93.3079 27.3232 93.4752 27.3165 93.6454 27.3775C94.0195 27.5134 94.1874 27.8699 94.0426 28.2308C93.8978 28.5916 93.5219 28.7371 93.1613 28.5686C92.9839 28.4874 92.8639 28.3557 92.8116 28.1992ZM91.7307 30.6757L91.9382 30.2004C92.0956 30.0611 92.3203 30.0126 92.5321 30.0869C92.8548 30.1967 93.0313 30.5903 92.9003 30.8947C92.7711 31.1951 92.3598 31.345 92.0622 31.1978C91.8527 31.0937 91.7329 30.8941 91.7307 30.6757ZM87.0288 44.1152L87.0019 44.1517C86.9633 44.1643 86.9288 44.1776 86.898 44.1894C86.8246 44.2176 86.772 44.2378 86.736 44.2228C86.6902 44.2038 86.659 44.1439 86.6284 44.0849C86.6153 44.0598 86.6024 44.0349 86.5884 44.0134C86.6093 44.001 86.6306 43.9859 86.652 43.9708C86.7085 43.9308 86.7657 43.8903 86.8179 43.8981C86.8588 43.9028 86.8945 43.9484 86.9453 44.0133C86.9691 44.0438 86.9962 44.0785 87.0288 44.1152ZM92.4704 36.7481L92.2779 37.0088C92.2819 36.9957 92.2863 36.9826 92.291 36.9695C92.3238 36.8787 92.3895 36.8021 92.4704 36.7481ZM94.3984 34.138L93.7829 34.9713C93.7391 34.9624 93.6957 34.9479 93.6537 34.9277C93.3666 34.7896 93.2446 34.4378 93.3909 34.154C93.5388 33.8662 93.8707 33.7694 94.1674 33.9306C94.2732 33.9883 94.3496 34.0583 94.3984 34.138ZM99.8923 26.7003L99.1922 27.648C99.1445 27.4934 99.141 27.3262 99.1952 27.1762C99.2991 26.8894 99.5902 26.7037 99.8923 26.7003ZM101.649 24.3217L100.759 25.527C100.748 25.5232 100.737 25.5191 100.725 25.5148C100.298 25.347 100.099 24.858 100.293 24.4461C100.472 24.061 100.931 23.8878 101.319 24.0584C101.459 24.1193 101.57 24.2109 101.649 24.3217ZM98.7786 20.5525L100.165 20.6502C100.273 20.8659 100.298 21.124 100.204 21.3386C100.035 21.7328 99.4989 21.9313 99.1057 21.7492C98.6978 21.5563 98.517 21.0462 98.7188 20.6515C98.7363 20.6168 98.7564 20.5838 98.7786 20.5525ZM96.1547 20.3678L97.3609 20.4527C97.1489 20.6704 96.8143 20.7541 96.5111 20.6357C96.3638 20.5799 96.2424 20.4852 96.1547 20.3678ZM94.301 18.0317L93.8395 19.5017C93.8083 19.4934 93.7772 19.4832 93.7465 19.4708C93.3343 19.3 93.1567 18.8629 93.334 18.4582C93.4898 18.104 93.9484 17.9092 94.301 18.0317ZM95.1574 15.3041L94.6906 16.7909C94.3708 16.5797 94.2301 16.1472 94.3845 15.7849C94.5195 15.4777 94.8327 15.2932 95.1574 15.3041ZM96.024 12.5436L95.6088 13.8661C95.4277 13.6291 95.3758 13.3006 95.5069 13.0075C95.6091 12.7738 95.8003 12.6115 96.024 12.5436ZM96.8199 10.0086L96.5306 10.9302C96.4721 10.7392 96.4803 10.5277 96.5689 10.3294C96.6263 10.2013 96.7138 10.0928 96.8199 10.0086ZM102.451 21.3615C102.024 21.1699 101.565 21.3431 101.367 21.7731C101.176 22.2006 101.346 22.6778 101.76 22.8684C102.182 23.0623 102.654 22.8803 102.847 22.4486C103.043 22.0227 102.871 21.5497 102.451 21.3615ZM93.9437 11.494C94.3525 11.673 94.5425 12.1726 94.3634 12.5814C94.1861 12.9862 93.675 13.1809 93.2719 12.9995C92.877 12.8215 92.6728 12.2873 92.8457 11.9046C93.0278 11.5114 93.543 11.3184 93.9437 11.494ZM91.7394 14.7126C91.5845 15.098 91.7805 15.5713 92.1584 15.7327C92.5607 15.9043 93.0772 15.6735 93.2185 15.2634C93.3547 14.8655 93.1476 14.4305 92.7425 14.277C92.3415 14.1252 91.8977 14.3191 91.7394 14.7126ZM97.6186 23.4333C97.7582 23.0273 98.2081 22.8072 98.6067 22.9532C99.0053 23.0993 99.2121 23.5581 99.0579 23.9533C98.9037 24.3485 98.4401 24.5438 98.0483 24.3814C97.6769 24.2274 97.4909 23.8108 97.6186 23.4333ZM95.0083 22.2655C95.1721 21.8933 95.6 21.7263 95.9714 21.8803C96.337 22.0366 96.518 22.4655 96.378 22.8379C96.2289 23.2208 95.8163 23.4086 95.4323 23.2733C95.0239 23.128 94.8286 22.6644 95.0083 22.2655ZM91.6802 16.9789C91.3278 16.8137 90.8761 16.9804 90.701 17.3335C90.5033 17.7298 90.6775 18.1751 91.0914 18.3418C91.4768 18.4967 91.885 18.3311 92.0504 17.9549C92.2075 17.5991 92.0367 17.1457 91.6802 16.9789ZM92.2609 21.1747C92.4093 20.7819 92.8045 20.6013 93.1875 20.7505C93.5542 20.8928 93.745 21.321 93.6009 21.6917C93.4602 22.0543 93.0286 22.2533 92.6661 22.1126C92.2913 21.9668 92.1117 21.5576 92.2609 21.1747ZM96.5843 26.0559C96.428 26.4216 96.5974 26.8553 96.9549 27.0082C97.3124 27.1611 97.7569 26.9771 97.9074 26.6138C98.0614 26.2424 97.8927 25.8186 97.5213 25.6647C97.1474 25.505 96.7474 25.674 96.5843 26.0559ZM89.619 20.0368C89.7676 19.7014 90.17 19.5382 90.5121 19.6704C90.9033 19.8229 91.0641 20.2196 90.8878 20.6104C90.7291 20.9703 90.3694 21.1225 90.0069 20.9818C89.6403 20.8395 89.4562 20.395 89.619 20.0368ZM94.8713 24.5808C94.5172 24.4197 94.0653 24.6102 93.9246 24.9728C93.7822 25.3394 93.9812 25.771 94.3603 25.8947C94.7256 26.0173 95.0855 25.8413 95.2262 25.4787C95.3577 25.1267 95.205 24.7335 94.8713 24.5808ZM91.1933 23.8313C91.3246 23.5031 91.7569 23.314 92.081 23.4436C92.401 23.5714 92.5908 24.0136 92.4637 24.3435C92.3348 24.6774 91.9076 24.8543 91.5713 24.7197C91.2267 24.5817 91.0553 24.1759 91.1933 23.8313ZM88.9226 23.5981C88.5985 23.4686 88.4323 23.108 88.5438 22.7811C88.6638 22.4339 89.0774 22.2323 89.4097 22.3652C89.7379 22.4964 89.9056 22.9342 89.7546 23.2638C89.6088 23.5812 89.2485 23.7236 88.9226 23.5981ZM95.8491 29.7111C96.1936 29.8492 96.596 29.6859 96.7283 29.3438C96.868 28.9952 96.7004 28.6148 96.3419 28.4758C95.981 28.3311 95.6058 28.4864 95.4644 28.8391C95.3288 29.1894 95.4923 29.5681 95.8491 29.7111ZM95.2139 31.1744C94.9249 31.0642 94.5564 31.2032 94.4209 31.4723C94.273 31.7601 94.4294 32.1788 94.7288 32.322C95.0485 32.4737 95.4146 32.3289 95.5533 31.9942C95.6978 31.6571 95.5455 31.2975 95.2139 31.1744ZM85.5722 24.0891C85.2913 23.9823 84.9266 24.1468 84.8181 24.4318C84.7061 24.725 84.8601 25.0805 85.1451 25.1891C85.426 25.2959 85.7907 25.1314 85.8993 24.8464C86.0061 24.5655 85.8491 24.1943 85.5722 24.0891ZM91.0802 33.8325C90.7769 33.7451 90.5992 33.3893 90.7118 33.1059C90.8184 32.8488 91.1335 32.7116 91.4079 32.811C91.6923 32.9097 91.8332 33.1928 91.7443 33.4765C91.6548 33.7502 91.3591 33.9098 91.0802 33.8325ZM90.2439 35.6428C90.0292 35.4917 89.7022 35.6575 89.6368 35.9077C89.5628 36.1784 89.6266 36.4631 89.9213 36.5135C90.0551 36.537 90.2036 36.4838 90.397 36.4145L90.3971 36.4145L90.3972 36.4144L90.3974 36.4143C90.4941 36.3797 90.6019 36.3411 90.7247 36.306C90.6513 36.2008 90.592 36.1043 90.539 36.0179C90.436 35.8502 90.3567 35.7212 90.2439 35.6428ZM88.6274 38.5741C88.7094 38.4455 88.9773 38.3414 89.1245 38.3785C89.2128 38.4024 89.2769 38.5148 89.3628 38.6654C89.4067 38.7423 89.4562 38.8291 89.5174 38.9191C89.413 38.9508 89.3231 38.9852 89.2435 39.0156L89.2433 39.0156L89.2433 39.0157L89.2432 39.0157C89.0894 39.0744 88.9744 39.1184 88.8687 39.0998C88.5861 39.0544 88.4885 38.794 88.6274 38.5741ZM87.6459 41.2425C87.6213 41.3711 87.6862 41.5606 87.7802 41.6569C87.819 41.7017 88.1047 41.624 88.1369 41.5465C88.1693 41.4682 88.1489 41.366 88.123 41.2359C88.1098 41.1692 88.095 41.0952 88.0852 41.0133C88.0128 41.0477 87.9421 41.0756 87.8792 41.1004C87.7508 41.151 87.6553 41.1887 87.6459 41.2425Z" fill="#E6E6E6" fill-opacity="0.6"/>
</svg>
