<svg width="45" height="44" viewBox="0 0 45 44" fill="none" xmlns="http://www.w3.org/2000/svg">
<path d="M17.0003 25.6667H18.8337V27.5H17.0003V25.6667Z" fill="white"/>
<path d="M28.0003 25.6667H26.167V27.5H28.0003V25.6667Z" fill="white"/>
<path d="M17.0003 16.5H18.8337V18.3333H17.0003V16.5Z" fill="white"/>
<path d="M28.0003 16.5H26.167V18.3333H28.0003V16.5Z" fill="white"/>
<path d="M18.8337 18.3333H20.667V20.1667H18.8337V18.3333Z" fill="white"/>
<path d="M26.167 18.3333H24.3337V20.1667H26.167V18.3333Z" fill="white"/>
<path d="M15.167 18.3333H17.0003V20.1667H15.167V18.3333Z" fill="white"/>
<path d="M29.8337 18.3333H28.0003V20.1667H29.8337V18.3333Z" fill="white"/>
<path d="M17.0003 33V34.8333H28.0003V33H17.0003Z" fill="white"/>
<path d="M26.167 29.3333V27.5H18.8337V29.3333H26.167Z" fill="white"/>
<path d="M13.3337 31.1667V33H17.0003V31.1667H13.3337Z" fill="white"/>
<path d="M13.3337 27.5H11.5003V31.1667H13.3337V27.5Z" fill="white"/>
<path d="M9.66699 27.5H11.5003V16.5H9.66699V27.5Z" fill="white"/>
<path d="M11.5003 16.5H13.3337V12.8333H11.5003L11.5003 16.5Z" fill="white"/>
<path d="M13.3337 11V12.8333H17.0003V11H13.3337Z" fill="white"/>
<path d="M17.0003 9.16666V11H28.0003V9.16666H17.0003Z" fill="white"/>
<path d="M31.667 12.8333V11H28.0003V12.8333H31.667Z" fill="white"/>
<path d="M31.667 16.5H33.5003V12.8333H31.667V16.5Z" fill="white"/>
<path d="M33.5003 27.5H35.3337V16.5H33.5003V27.5Z" fill="white"/>
<path d="M33.5003 27.5H31.667V31.1667H33.5003V27.5Z" fill="white"/>
<path d="M31.667 33V31.1667H28.0003V33H31.667Z" fill="white"/>
</svg>
